<?xml version="1.0" encoding="utf-8"?>
<!-- Generator: Adobe Illustrator 18.1.1, SVG Export Plug-In . SVG Version: 6.00 Build 0)  -->
<svg version="1.1" id="Layer_1" xmlns="http://www.w3.org/2000/svg" xmlns:xlink="http://www.w3.org/1999/xlink" x="0px" y="0px"
	 viewBox="0 0 595.3 595.4" enable-background="new 0 0 595.3 595.4" xml:space="preserve">
<path fill="#FFFFFF" d="M404.8,119.1V95.3H381v23.8h-23.8V95.3h-23.8v23.8h-23.8V95.3h-23.8v23.8h-23.8V95.3h-23.8v23.8h-23.8V95.3
	h-23.8v23.8h-11.9v262h238.2v-262H404.8z M333.4,142.9h23.8v11.9h-23.8V142.9z M285.7,142.9h23.8v11.9h-23.8V142.9z M238.1,142.9
	h23.8v11.9h-23.8V142.9z M190.5,142.9h23.8v11.9h-23.8V142.9z M333.4,345.4H214.3v-11.9h119.1V345.4z M381,321.5H214.3v-11.9H381
	V321.5z M381,297.7H214.3v-11.9H381V297.7z M381,273.9H214.3V262H381V273.9z M381,250.1H214.3v-11.9H381V250.1z M381,226.3H214.3
	v-11.9H381V226.3z M381,202.4H214.3v-11.9H381V202.4z M404.8,154.8H381v-11.9h23.8V154.8z"/>
<text transform="matrix(1 0 0 1 59.4676 654.9861)" font-family="'HelveticaNeue-Bold'" font-size="59.544">Created by Hello Many</text>
<text transform="matrix(1 0 0 1 59.4676 714.526)" font-family="'HelveticaNeue-Bold'" font-size="59.544">from the Noun Project</text>
</svg>
