<svg height='100px' width='100px'  fill="#000000" xmlns="http://www.w3.org/2000/svg" xmlns:xlink="http://www.w3.org/1999/xlink" version="1.1" x="0px" y="0px" viewBox="0 0 80 80" enable-background="new 0 0 80 80" xml:space="preserve"><g opacity=".25"><path d="M72.936,66.359L47.92,21.966c-0.087-0.154-0.248-0.25-0.425-0.254c-0.181-0.005-0.342,0.085-0.436,0.236L32.625,45.144   L26.116,34.36c-0.092-0.152-0.255-0.236-0.435-0.242c-0.178,0.002-0.34,0.099-0.428,0.253L7.065,66.357   c-0.088,0.154-0.087,0.345,0.002,0.498c0.089,0.154,0.254,0.249,0.432,0.249h65c0.178,0,0.342-0.095,0.432-0.248   S73.022,66.514,72.936,66.359z"></path><path d="M62.351,27.019c3.894,0,7.062-3.168,7.062-7.062s-3.168-7.062-7.062-7.062s-7.062,3.168-7.062,7.062   S58.457,27.019,62.351,27.019z"></path></g></svg>