<svg width="800" height="800" xmlns="http://www.w3.org/2000/svg"><path fill="#ccc" d="M-1-1h802v802H-1z"/><g><path fill="#666" stroke="null" clip-rule="evenodd" fill-rule="evenodd" d="M504.123 347.024l-1.442-53.901-88.569 25.58c-7.981 1.731-15.819 2.597-23.56 2.597-8.27.048-16.397-.866-24.426-2.597L281.5 292.835v54.67c2.404 28.369 83.856 37.072 108.86 38.274 20.05.961 99.194-9.473 109.58-25.82 2.26-3.559 3.654-7.886 4.183-12.935zM116.768 587.39h60.536c-4.471-1.154-7.837-5.29-7.837-10.097V309.47c0-5.722 4.712-10.434 10.434-10.434h46.736c-1.49 5.337-2.356 10.77-2.452 16.348h-36.831v258.926h424.042V315.385h-35.725a64.607 64.607 0 00-2.404-16.348h44.091c5.722 0 10.434 4.712 10.434 10.434v267.773a10.42 10.42 0 01-7.837 10.098h63.277c6.732 0 12.213 5.481 12.213 12.213 0 6.732-5.481 12.213-12.213 12.213H116.768c-6.732 0-12.213-5.481-12.213-12.213 0-6.684 5.481-12.165 12.213-12.165zm118.284-59.238c-3.895 0-7.068-3.174-7.068-7.068s3.173-7.068 7.068-7.068h275.9c3.894 0 7.067 3.173 7.067 7.068s-3.173 7.068-7.068 7.068h-275.9zm0-42.169c-3.895 0-7.068-3.173-7.068-7.068s3.173-7.068 7.068-7.068H446.28c3.894 0 7.068 3.173 7.068 7.068s-3.174 7.068-7.068 7.068H235.052zm0-42.168c-3.895 0-7.068-3.174-7.068-7.069s3.173-7.068 7.068-7.068h278.111c3.895 0 7.068 3.174 7.068 7.068s-3.173 7.069-7.068 7.069H235.052zM382.81 591.958h34.332c3.221 0 5.866 2.644 5.866 5.866 0 3.221-2.645 5.866-5.866 5.866H382.81c-3.221 0-5.866-2.645-5.866-5.866a5.859 5.859 0 015.866-5.866zM540.041 254.32v65.874h2.068c1.394 0 2.596 1.154 2.596 2.596v17.695c0 1.394-1.154 2.596-2.596 2.596h-2.116v6.203c2.645.48 4.664 2.837 4.664 5.625a5.77 5.77 0 01-5.722 5.722h-10.241c-3.126 0-5.722-2.548-5.722-5.722 0-2.788 2.02-5.096 4.664-5.625v-6.203h-2.068c-1.394 0-2.596-1.154-2.596-2.596V322.79a2.586 2.586 0 012.596-2.596h2.116v-62.027L419.882 291.68c-19.521 4.664-39.043 4.952-58.565 0L242.36 256.147l-10.77-3.221c-13.415-5.482-10.05-18.32 2.404-21.3l134.584-40.198c13.896-3.943 27.744-4.568 41.64 0l132.131 39.716c14.377 3.51 17.214 16.781.481 22.263l-2.789.913z"/></g></svg>